<?xml version="1.0" encoding="UTF-8" ?>
<!DOCTYPE svg PUBLIC "-//W3C//DTD SVG 1.1//EN" "http://www.w3.org/Graphics/SVG/1.1/DTD/svg11.dtd">
<svg width="512pt" height="512pt" viewBox="0 0 512 512" version="1.1" xmlns="http://www.w3.org/2000/svg">
<g id="#ffffffff">
<path fill="#ffffff" opacity="1.00" d=" M 58.49 0.00 L 454.48 0.00 C 470.06 0.77 485.28 7.62 495.86 19.12 C 505.83 29.70 511.56 43.98 512.00 58.48 L 512.00 200.92 C 433.00 201.10 354.00 200.95 275.01 201.00 C 265.32 201.08 255.42 200.40 245.99 203.08 C 227.97 207.79 212.59 221.32 205.58 238.56 C 202.48 245.96 201.04 253.98 201.02 261.99 C 200.91 345.33 201.13 428.66 200.91 512.00 L 57.52 512.00 C 41.70 511.23 26.26 504.16 15.66 492.35 C 6.18 482.08 0.73 468.41 0.00 454.49 L 0.00 58.48 C 0.45 42.33 7.61 26.48 19.65 15.66 C 30.16 5.98 44.22 0.44 58.49 0.00 Z" />
</g>
<g id="#ff6e14ff">
<path fill="#ff6e14" opacity="1.00" d=" M 245.99 203.08 C 255.42 200.40 265.32 201.08 275.01 201.00 C 354.00 200.95 433.00 201.10 512.00 200.92 L 512.00 201.64 C 499.61 213.02 488.13 225.34 476.10 237.10 C 393.26 319.93 310.43 402.77 227.60 485.60 C 219.00 494.45 209.87 502.79 201.65 512.00 L 200.91 512.00 C 201.13 428.66 200.91 345.33 201.02 261.99 C 201.04 253.98 202.48 245.96 205.58 238.56 C 212.59 221.32 227.97 207.79 245.99 203.08 Z" />
</g>
<g id="#96410aff">
<path fill="#96410a" opacity="1.00" d=" M 476.10 237.10 C 488.13 225.34 499.61 213.02 512.00 201.64 L 512.00 459.33 C 509.70 473.63 503.02 487.38 491.98 496.95 C 482.97 505.22 471.30 509.95 459.35 512.00 L 201.65 512.00 C 209.87 502.79 219.00 494.45 227.60 485.60 C 310.43 402.77 393.26 319.93 476.10 237.10 Z" />
</g>
</svg>
